# xmcd CD database file
#
# Track frame offsets:
#	183
#	4330
#	6020
#	24548
#	49638
#	68810
#	88393
#	154368
#	165703
#	178193
#	193515
#	209880
#	262205
#	277810
#
# Disc length: 4002 seconds
#
# Revision: 0
# Processed by: cddbd v1.4PL0 Copyright (c) Steve Scherf et al.
# Submitted via: CDex 1.50
#
DISCID=cb0fa00e
DTITLE=Duke Ellington - The Great London Concerts
DYEAR=1900
DGENRE=Jazz
TTITLE0=Take The "A" Train (instrumental)
TTITLE1=Introduction
TTITLE2=Perdido
TTITLE3=Caravan
TTITLE4=Isfahan
TTITLE5=The Opener
TTITLE6=Harlem
TTITLE7=Take The "A" Train (vocal)
TTITLE8=Mood Indigo
TTITLE9=C Jam Blues
TTITLE10=Don't Get Around Much Anymore
TTITLE11=Diminuendo And Crescendo In Blue
TTITLE12=Single Petal Of A Rose
TTITLE13=Kinda Dukish and Rockin' In Rhythm
EXTD=
EXTT0=
EXTT1=
EXTT2=
EXTT3=
EXTT4=
EXTT5=
EXTT6=
EXTT7=
EXTT8=
EXTT9=
EXTT10=
EXTT11=
EXTT12=
EXTT13=
PLAYORDER=
